<svg width="28" height="22" viewBox="0 0 28 22" fill="none" xmlns="http://www.w3.org/2000/svg">
<path d="M15.586 0.586061C15.9611 0.211119 16.4697 0.000488281 17 0.000488281C17.5303 0.000488281 18.0389 0.211119 18.414 0.586061L27.414 9.58606C27.7889 9.96112 27.9996 10.4697 27.9996 11.0001C27.9996 11.5304 27.7889 12.039 27.414 12.4141L18.414 21.4141C18.0368 21.7784 17.5316 21.98 17.0072 21.9754C16.4828 21.9708 15.9812 21.7605 15.6104 21.3897C15.2395 21.0189 15.0292 20.5173 15.0247 19.9929C15.0201 19.4685 15.2217 18.9633 15.586 18.5861L21 13.0001H2C1.46957 13.0001 0.960859 12.7893 0.585786 12.4143C0.210714 12.0392 0 11.5305 0 11.0001C0 10.4696 0.210714 9.96092 0.585786 9.58585C0.960859 9.21077 1.46957 9.00006 2 9.00006H21L15.586 3.41406C15.2111 3.03901 15.0004 2.53039 15.0004 2.00006C15.0004 1.46973 15.2111 0.961116 15.586 0.586061Z" fill="#9747FF"/>
</svg>
